<svg width="111" height="100" viewBox="0 0 111 100" fill="none" xmlns="http://www.w3.org/2000/svg">
<path d="M49.6484 10.8784C50.4777 9.45454 52.5347 9.45453 53.364 10.8784L87.8984 70.1679C88.7332 71.6012 87.6993 73.4 86.0405 73.4H16.9719C15.3131 73.4 14.2792 71.6012 15.114 70.1679L49.6484 10.8784Z" stroke="white" stroke-width="1.7"/>
<path d="M57.0005 90.9222C56.0407 93.0258 53.1631 93.2999 51.8251 91.4152L11.8872 35.1603C10.5512 33.2785 11.7524 30.6551 14.0502 30.4362L82.635 23.9037C84.9329 23.6849 86.6057 26.0345 85.6474 28.1348L57.0005 90.9222Z" fill="#FFC124"/>
<path d="M12.4317 45.3937C12.0704 41.6897 9.63469 39.6609 6.63754 39.9532C3.62909 40.2466 1.63695 42.7073 1.9982 46.4113C2.35891 50.1097 4.78952 52.1447 7.79797 51.8513C10.7951 51.559 12.7929 49.0977 12.4317 45.3937ZM10.7012 45.5625C10.9764 48.3843 9.63299 50.0624 7.64244 50.2566C5.64623 50.4513 4.0095 49.0638 3.73429 46.242C3.45907 43.4201 4.79687 41.7426 6.79308 41.5479C8.78363 41.3538 10.426 42.7406 10.7012 45.5625ZM20.1903 46.8463C20.3399 48.3217 19.3112 49.1299 18.3612 49.2226C17.315 49.3246 16.5172 48.6375 16.402 47.4556L15.883 42.1342L14.1921 42.2991L14.731 47.824C14.9411 49.9786 16.2322 50.983 17.9004 50.8203C19.2067 50.6929 20.0273 49.9164 20.3383 48.9498L20.4288 48.941L20.5755 50.4452L22.2381 50.2831L21.3909 41.597L19.6944 41.7625L20.1903 46.8463ZM27.7174 40.98L25.9361 41.1537L25.7332 39.0727L24.0423 39.2376L24.2453 41.3186L22.9729 41.4427L23.1053 42.7999L24.3777 42.6758L24.8779 47.8049C25.0261 49.3832 26.3051 50.0291 27.6369 49.8707C28.1736 49.8127 28.5256 49.6756 28.7163 49.5828L28.2747 48.2158C28.1638 48.2494 27.9596 48.3207 27.6881 48.3472C27.1396 48.4007 26.63 48.2677 26.5345 47.2894L26.0685 42.5109L27.8498 42.3372L27.7174 40.98ZM38.3252 48.8911C40.7738 48.6523 42.1994 46.7035 41.9374 44.0174C41.6738 41.3143 39.8986 39.6778 37.45 39.9166C35.0013 40.1554 33.5758 42.1041 33.8395 44.8072C34.1014 47.4933 35.8766 49.1299 38.3252 48.8911ZM38.1925 47.4711C36.5921 47.6272 35.7094 46.3032 35.5467 44.635C35.3846 42.9724 35.9931 41.4859 37.5935 41.3298C39.1825 41.1748 40.0669 42.5158 40.229 44.1783C40.3917 45.8466 39.7815 47.3161 38.1925 47.4711ZM47.5311 39.0476L45.6593 39.2301L45.5832 38.4497C45.5082 37.6807 45.7841 37.2313 46.6097 37.1508C46.9603 37.1166 47.2168 37.1715 47.3801 37.2069L47.6425 35.7998C47.3962 35.7325 46.8904 35.6391 46.2062 35.7058C44.832 35.8399 43.7058 36.7604 43.8646 38.389L43.9628 39.3956L42.6226 39.5263L42.7549 40.8835L44.0952 40.7528L44.81 48.0816L46.5065 47.9162L45.7917 40.5873L47.6635 40.4048L47.5311 39.0476ZM54.4729 47.1392L58.9121 46.7063C61.6039 46.4437 62.689 44.9849 62.5158 43.2092C62.341 41.4166 60.9868 40.5268 59.8328 40.5766L59.8218 40.4635C60.8584 40.0883 61.6757 39.2779 61.5345 37.8302C61.3674 36.1168 60.0502 34.9037 57.5846 35.1441L53.3434 35.5578L54.4729 47.1392ZM56.0742 45.4702L55.7124 41.7605L58.2967 41.5085C59.6991 41.3717 60.6639 42.191 60.7714 43.2937C60.8663 44.2664 60.2758 45.0604 58.5963 45.2242L56.0742 45.4702ZM55.5794 40.3977L55.2358 36.8746L57.6222 36.6419C59.0077 36.5068 59.7405 37.1717 59.8342 38.1331C59.9434 39.2528 59.0968 40.0546 57.9206 40.1694L55.5794 40.3977ZM68.4324 45.9547C70.881 45.7159 72.3065 43.7672 72.0445 41.0811C71.7809 38.378 70.0057 36.7414 67.5571 36.9802C65.1085 37.2191 63.683 39.1678 63.9466 41.8709C64.2086 44.557 65.9838 46.1935 68.4324 45.9547ZM68.2996 44.5348C66.6992 44.6908 65.8166 43.3669 65.6539 41.6986C65.4917 40.0361 66.1003 38.5495 67.7006 38.3934C69.2897 38.2385 70.174 39.5794 70.3362 41.242C70.4989 42.9102 69.8887 44.3798 68.2996 44.5348ZM79.5026 41.0616C79.6522 42.537 78.6235 43.3452 77.6735 43.4378C76.6273 43.5399 75.8296 42.8527 75.7143 41.6708L75.1953 36.3495L73.5045 36.5144L74.0433 42.0393C74.2534 44.1938 75.5445 45.1983 77.2128 45.0356C78.5191 44.9082 79.3396 44.1317 79.6507 43.1651L79.7411 43.1563L79.8878 44.6605L81.5504 44.4983L80.7033 35.8123L79.0068 35.9777L79.5026 41.0616ZM85.0101 38.9545C84.875 37.569 85.6461 36.6946 86.8223 36.5799C87.9703 36.4679 88.7392 37.1522 88.8622 38.4133L89.3812 43.7346L91.072 43.5697L90.5331 38.0448C90.3236 35.8959 89.0319 34.8858 87.2562 35.059C85.9499 35.1864 85.1551 35.8747 84.8435 36.8357L84.736 36.8461L84.5981 35.4324L82.9751 35.5907L83.8223 44.2768L85.5131 44.1118L85.0101 38.9545ZM96.6078 43.201C98.1912 43.0466 98.7189 42.0189 98.9703 41.435L99.1116 41.4212L99.2434 42.7727L100.895 42.6117L99.7652 31.0303L98.0743 31.1952L98.494 35.4986L98.3923 35.5085C98.0345 35.0011 97.3617 34.0734 95.7444 34.2311C93.6464 34.4357 92.2642 36.2432 92.5388 39.0594C92.8129 41.8699 94.4985 43.4068 96.6078 43.201ZM96.8404 41.7226C95.3305 41.8699 94.4149 40.6176 94.245 38.8759C94.0768 37.1511 94.7195 35.7811 96.2464 35.6322C97.7223 35.4882 98.6315 36.6155 98.8086 38.4308C98.9867 40.2574 98.2994 41.5803 96.8404 41.7226ZM109.177 35.1761C108.694 33.8587 107.551 33.0797 105.673 33.2628C103.711 33.4542 102.421 34.6247 102.571 36.1629C102.691 37.3956 103.517 38.1428 105.181 38.3459L106.683 38.5248C107.538 38.6298 107.965 38.965 108.018 39.5079C108.083 40.1808 107.416 40.7768 106.308 40.8849C105.296 40.9836 104.603 40.6116 104.316 39.7775L102.706 40.1857C103.139 41.6963 104.501 42.4369 106.452 42.2466C108.55 42.042 109.895 40.7862 109.742 39.2141C109.622 37.987 108.768 37.3053 107.137 37.0933L105.726 36.9112C104.749 36.7782 104.304 36.4961 104.253 35.9075C104.182 35.2407 104.859 34.6951 105.821 34.6014C106.873 34.4988 107.416 35.0338 107.671 35.597L109.177 35.1761Z" fill="#F8F8F8"/>
<path d="M39.1116 57.31L39.9542 57.2277C39.8385 56.3027 38.9531 55.7099 37.7768 55.8249C36.6148 55.9385 35.7888 56.69 35.8859 57.6881C35.9644 58.494 36.5871 58.9098 37.5418 59.0705L38.2442 59.1903C38.8794 59.2937 39.3771 59.4506 39.4271 59.9652C39.4822 60.5307 38.9785 60.9568 38.2349 61.0294C37.5619 61.0952 36.9729 60.8502 36.8607 60.2246L35.9842 60.3103C36.1428 61.3538 37.0173 61.922 38.3151 61.7951C39.6751 61.6622 40.3887 60.8703 40.2932 59.8892C40.1916 58.8458 39.222 58.5324 38.4693 58.4233L37.8895 58.3315C37.4258 58.2598 36.8029 58.1066 36.7518 57.5521C36.704 57.0601 37.118 56.6514 37.8305 56.5818C38.495 56.5168 38.9974 56.7817 39.1116 57.31ZM44.0009 59.3241C44.0756 60.0618 43.5612 60.4661 43.0861 60.5125C42.5631 60.5636 42.1643 60.2201 42.1068 59.6291L41.8478 56.9684L41.0024 57.051L41.2713 59.8135C41.3761 60.8908 42.0215 61.3929 42.8556 61.3114C43.5088 61.2476 43.9191 60.8592 44.0747 60.3759L44.12 60.3715L44.1932 61.1236L45.0244 61.0424L44.6017 56.6992L43.7535 56.7821L44.0009 59.3241ZM46.3189 62.56L47.1643 62.4774L46.94 60.1729L46.9909 60.168C47.1705 60.4301 47.5286 60.8832 48.3203 60.8059C49.3721 60.7031 50.0535 59.7858 49.9167 58.3806C49.7797 56.9724 48.9243 56.2197 47.8753 56.3222C47.0695 56.401 46.8262 56.9214 46.7025 57.2047L46.6318 57.2116L46.5633 56.5075L45.7377 56.5882L46.3189 62.56ZM46.7774 58.6788C46.6891 57.7712 47.0263 57.1302 47.7643 57.0581C48.5305 56.9832 48.9781 57.5931 49.062 58.4555C49.1468 59.3264 48.8156 60.0296 48.0607 60.1034C47.334 60.1744 46.8663 59.5921 46.7774 58.6788ZM51.2329 62.0797L52.0784 61.9971L51.8541 59.6926L51.905 59.6877C52.0846 59.9499 52.4427 60.403 53.2344 60.3256C54.2862 60.2228 54.9676 59.3056 54.8308 57.9003C54.6938 56.4922 53.8384 55.7394 52.7894 55.8419C51.9836 55.9207 51.7403 56.4411 51.6166 56.7244L51.5459 56.7313L51.4774 56.0273L50.6517 56.1079L51.2329 62.0797ZM51.6915 58.1985C51.6032 57.2909 51.9404 56.6499 52.6784 56.5778C53.4446 56.5029 53.8922 57.1128 53.9761 57.9752C54.0609 58.8461 53.7297 59.5493 52.9748 59.6231C52.2481 59.6941 51.7804 59.1118 51.6915 58.1985ZM57.8264 59.8796C59.0507 59.76 59.7636 58.7854 59.6329 57.4424C59.5014 56.0908 58.614 55.2727 57.3897 55.3923C56.1654 55.512 55.4525 56.4865 55.584 57.8381C55.7147 59.1812 56.6021 59.9993 57.8264 59.8796ZM57.7602 59.1696C56.96 59.2479 56.5188 58.5859 56.4376 57.7518C56.3567 56.9205 56.6611 56.1771 57.4613 56.0989C58.2558 56.0213 58.6978 56.6917 58.7787 57.523C58.8599 58.3571 58.5547 59.092 57.7602 59.1696ZM60.786 59.5019L61.6314 59.4193L61.3733 56.767C61.3179 56.1987 61.7163 55.7459 62.3157 55.6873C62.491 55.6701 62.692 55.6819 62.7617 55.6951L62.683 54.8864C62.5971 54.8834 62.4295 54.8912 62.322 54.9017C61.8131 54.9514 61.4057 55.2824 61.2928 55.7644L61.2476 55.7688L61.1804 55.0789L60.3633 55.1588L60.786 59.5019ZM65.7029 54.6369L64.8123 54.724L64.711 53.6834L63.8656 53.766L63.9668 54.8066L63.3307 54.8688L63.3967 55.5474L64.0329 55.4852L64.2825 58.0498C64.3564 58.8389 64.9958 59.1618 65.6617 59.0824C65.9301 59.0534 66.1061 58.9848 66.2015 58.9384L65.9808 58.2549C65.9254 58.2717 65.8232 58.3074 65.6875 58.3206C65.4132 58.3475 65.1584 58.281 65.1108 57.7918L64.8783 55.4026L65.7689 55.3155L65.7029 54.6369Z" fill="#F8F8F8"/>
</svg>
